PathFileType	4	(X/Y/Z)	\\move.snu.ac.kr\motion\Animal\091204_091205_Bird\091205_bird\Project 2\Capture day 2\Session 1\pigeon_016_14markers.trc
DataRate	CameraRate	NumFrames	NumMarkers	Units	OrigDataRate	OrigDataStartFrame	OrigNumFrames
240.0	240.0	24	14	mm	240.0	93	2171
Frame#	Time	20MarkersBird:Head			20MarkersBird:C_back			20MarkersBird:L-back			20MarkersBird:R-back			20MarkersBird:Spine			20MarkersBird:L-shoulder			20MarkersBird:L-elbow			20MarkersBird:L-wrist			20MarkersBird:L-hand			20MarkersBird:L-wing1			20MarkersBird:L-wing10			20MarkersBird:R-shoulder			20MarkersBird:R-elbow			20MarkersBird:R-Wrist			20MarkersBird:R-hand			20MarkersBird:R-wing1			20MarkersBird:R-wing10			20MarkersBird:C_Tail			20MarkersBird:L-Tale			20MarkersBird:R-Tale			
		X1	Y1	Z1	X2	Y2	Z2	X3	Y3	Z3	X4	Y4	Z4	X5	Y5	Z5	X6	Y6	Z6	X7	Y7	Z7	X8	Y8	Z8	X9	Y9	Z9	X10	Y10	Z10	X11	Y11	Z11	X12	Y12	Z12	X13	Y13	Z13	X14	Y14	Z14	X15	Y15	Z15	X16	Y16	Z16	X17	Y17	Z17	X18	Y18	Z18	X19	Y19	Z19	X20	Y20	Z20	

1153	4.800	-1473.80115	1457.63013	634.91858	-1475.11938	1460.99622	690.50293							-1479.30481	1448.92297	748.07257	-1497.75171	1457.32788	662.64941	-1487.19495	1482.97217	709.83044	-1508.44458	1508.82446	684.11578	-1531.94373	1512.20166	707.42755							-1457.04785	1453.02014	668.72278	-1457.13440	1475.79639	703.47748	-1426.67529	1489.21948	681.76617	-1390.02112	1481.58130	699.68549							-1514.55591	1365.01746	837.16815	-1580.07983	1434.17627	773.83740	-1402.25647	1367.86548	787.62933	
1154	4.804	-1471.94568	1458.13025	627.71747	-1475.36755	1460.09680	683.90479							-1479.17078	1447.66785	741.15228	-1496.00012	1457.54175	655.01373	-1481.80066	1484.41772	702.10010	-1501.10840	1511.96851	679.24786	-1516.66101	1523.32397	705.41187							-1456.68274	1452.63635	661.97491	-1456.94604	1477.96069	696.25977	-1430.74792	1497.08289	676.10870	-1397.92346	1501.45825	701.90009							-1517.15381	1364.33276	829.42267	-1579.38086	1435.74194	766.78961	-1398.87207	1371.32507	781.00348	
1155	4.808	-1470.28674	1458.63123	620.63501	-1474.65576	1459.87488	676.65112							-1478.80969	1445.62830	734.05615	-1494.69080	1457.14026	648.40045	-1478.15210	1485.29858	694.06036	-1493.80286	1514.55249	672.97504	-1499.98047	1531.49097	699.74872							-1455.94373	1452.42664	655.23077	-1454.71570	1479.51807	688.52142	-1435.36255	1503.37476	669.39648	-1409.38367	1518.81104	701.17242							-1518.79993	1363.99182	822.73706	-1579.10278	1435.62463	759.18835	-1396.52393	1373.03418	774.26843	
1156	4.813	-1468.58472	1458.93506	613.70715	-1473.91187	1459.94299	669.74695							-1478.42358	1443.76343	726.95270	-1493.52246	1456.75513	642.05231	-1477.82910	1485.27002	682.82355	-1488.78418	1515.96863	665.71204	-1485.81665	1534.64233	691.55347							-1454.79358	1452.28845	648.38281	-1451.96411	1481.26648	678.91760	-1439.42358	1507.49548	661.05975	-1423.42542	1529.80640	694.38702							-1519.77502	1363.65222	816.82318	-1579.06543	1435.52429	751.50946	-1395.35022	1374.10791	768.54700	
1157	4.817	-1466.95728	1459.00549	606.95813	-1472.34570	1459.09692	663.96332							-1478.03577	1442.03113	719.92804	-1492.13013	1456.29480	635.93219	-1478.93958	1484.93347	671.89386	-1486.72180	1517.43103	657.09784	-1475.74756	1535.93958	680.76105							-1453.39734	1451.86536	641.71301	-1448.61694	1481.49121	669.59900	-1439.97180	1508.62610	651.49469	-1434.88928	1537.26843	683.62976							-1519.64014	1363.22363	811.31543	-1578.94055	1434.83997	743.35968	-1395.23120	1373.99280	763.19482	
1158	4.821	-1465.55176	1458.77258	600.34924	-1472.14111	1458.61047	656.87073							-1477.62854	1440.47900	712.95966	-1491.45508	1456.49377	629.86603	-1481.31702	1484.35181	662.21521	-1489.26367	1518.14258	648.86902	-1473.63403	1536.74060	669.12720							-1451.43433	1450.87659	635.20618	-1445.97949	1482.26013	660.01447	-1435.14734	1507.53210	643.24707	-1437.17517	1540.36438	670.43549							-1518.44275	1362.70667	806.01666	-1578.60352	1434.20410	735.26062	-1395.25171	1372.63477	757.82025	
1159	4.825	-1464.27869	1458.69861	593.95325	-1470.82520	1456.52637	652.61969							-1477.18445	1439.15503	706.02496	-1490.42859	1456.53259	623.11432	-1485.22327	1483.15149	654.41577	-1495.07483	1517.89111	640.97144	-1480.36084	1539.09082	657.26154							-1448.99841	1449.44788	628.69208	-1443.07666	1482.40100	653.35449	-1426.40308	1503.79895	636.74603	-1425.12732	1541.91101	656.11731							-1516.56299	1362.52405	800.70807	-1577.83704	1433.48938	727.48120	-1395.32104	1371.48987	752.10925	
1160	4.829	-1463.10132	1458.32153	587.40399	-1470.24316	1454.34583	647.00592							-1476.68591	1438.10657	699.10150	-1489.21045	1456.25818	616.85052	-1489.91016	1481.44165	644.94104	-1505.07080	1515.07336	634.70129	-1494.55408	1541.77869	646.84210							-1446.92688	1447.88147	621.90424	-1439.07556	1478.99353	646.79541	-1415.44495	1497.07104	631.68604	-1407.57446	1535.98438	647.78979							-1514.96875	1362.57031	794.30927	-1577.08923	1432.64063	720.07776	-1395.20142	1370.60950	745.98334	
1161	4.833	-1461.86462	1458.04749	580.97522	-1469.46899	1453.37219	639.10406							-1476.11511	1437.38159	692.16669	-1488.18921	1455.65112	610.61621	-1493.91418	1479.54333	635.76453	-1516.47192	1510.45251	627.36780	-1515.31812	1541.21143	638.24359							-1445.12280	1445.71619	614.83179	-1434.50562	1470.90515	639.00854	-1404.13867	1487.25391	626.53204	-1386.24976	1524.66638	640.48981							-1513.99072	1362.55530	787.50525	-1576.46570	1430.95007	712.48047	-1394.93628	1369.52112	739.31897	
1162	4.838	-1460.99011	1457.98633	573.99786	-1469.62390	1449.94202	634.33447							-1475.45459	1437.02771	685.19794	-1486.80591	1454.79395	604.16608	-1497.06616	1476.25720	625.93195	-1528.10034	1502.85498	619.26379	-1536.89697	1532.65894	626.78998							-1442.99487	1443.65857	606.50568	-1428.55261	1465.85388	631.24927	-1393.48633	1475.66003	618.32538	-1366.85901	1505.93970	631.63910							-1513.48438	1362.58606	780.20526	-1576.29797	1428.59485	705.01746	-1394.79614	1367.94385	731.92322	
1163	4.842	-1460.05322	1458.18103	566.66602	-1469.23560	1448.62402	627.18054							-1474.68677	1437.09277	678.17279	-1486.03125	1453.71301	597.03912	-1499.93408	1473.01477	618.39795	-1538.31958	1492.69751	608.54010	-1555.10742	1519.06384	613.20404							-1441.86218	1441.33020	598.52948	-1423.70923	1460.10217	621.77911	-1386.32800	1462.51001	608.39862	-1351.29077	1483.11804	617.00000							-1513.11084	1362.66101	772.50952	-1575.99316	1425.85950	697.46283	-1394.12964	1366.80676	724.07288	
1164	4.846	-1459.34814	1458.52759	559.02869	-1468.12720	1450.02661	618.39563							-1473.79407	1437.62427	671.06866	-1485.44006	1452.57898	589.63049	-1503.36450	1470.02576	610.60352	-1546.68884	1479.65540	594.43250	-1568.62756	1501.27747	595.66174							-1440.82886	1438.88708	590.70245	-1422.04150	1454.88245	611.84058	-1382.48645	1447.40393	595.56885	-1342.67590	1458.34375	598.80829							-1512.44678	1362.39563	764.50470	-1575.71790	1423.09045	689.68762	-1393.26221	1366.93689	716.38495	
1165	4.850	-1458.58008	1458.59277	551.42322	-1468.17712	1450.54443	610.83960							-1472.75879	1438.67017	663.86310	-1485.33459	1451.06885	581.96686	-1509.02930	1466.04041	600.96381	-1550.79761	1463.59351	578.67639	-1576.65637	1480.22437	575.92621							-1440.08667	1437.72791	582.44470	-1419.69336	1449.12524	600.96240	-1382.97827	1431.95959	580.21204	-1341.87671	1432.28015	577.79565							-1511.00928	1361.94336	756.34180	-1574.74915	1419.08105	681.77051	-1392.03967	1368.35315	709.39252	
1166	4.854	-1458.06262	1458.73645	543.70428	-1467.77283	1451.00562	603.25964							-1471.56335	1440.27808	656.53345	-1485.29944	1450.57007	573.27112	-1513.29785	1459.76624	589.95026	-1549.45178	1447.01074	562.42731	-1577.82703	1456.09949	554.79199							-1439.38098	1437.30017	574.06958	-1416.61865	1441.79871	588.87378	-1388.13184	1417.31628	564.00317	-1349.46423	1407.12744	555.98743							-1508.62402	1361.21594	747.97345	-1573.16919	1415.37476	674.58380	-1390.45129	1370.95630	703.02081	
1167	4.858	-1457.52368	1458.62720	535.74347	-1466.89880	1452.00391	595.66333							-1470.21973	1442.42200	649.09912	-1485.14844	1450.14941	564.95514	-1514.77979	1452.80933	579.12756	-1542.71936	1431.81860	547.21503	-1570.59790	1431.19092	534.43420							-1438.72815	1437.78699	566.06738	-1416.01392	1434.94006	577.05524	-1398.01904	1406.06165	548.68530	-1364.59912	1386.15356	535.62274							-1505.46350	1360.92017	739.61847	-1571.14929	1412.01660	668.14447	-1388.64758	1374.24719	697.34180	
1168	4.863	-1457.19153	1458.49414	527.61310	-1465.70911	1452.59985	587.88190							-1468.52673	1444.18774	641.21094	-1484.62549	1449.95337	556.91315	-1514.14722	1445.89844	568.53253	-1531.84180	1419.62524	533.44452	-1555.05713	1409.32861	517.84149							-1438.02747	1438.74707	558.22040	-1416.74805	1429.40735	566.11292	-1409.43640	1399.57373	535.37689	-1384.66467	1372.22839	517.87738							-1501.51440	1361.04932	731.76331	-1568.81995	1409.77002	662.66254	-1387.01208	1377.46509	691.89905	
1169	4.867	-1456.65149	1457.40747	519.68756	-1464.39697	1453.27283	580.04437							-1467.11597	1445.35559	632.94171	-1484.04297	1449.95032	548.51904	-1512.38440	1440.59180	560.17859	-1518.96863	1413.20496	522.44733	-1534.63550	1395.23169	505.54037							-1437.10291	1438.89893	549.55457	-1417.88867	1426.58691	555.87482	-1421.18970	1397.35803	525.07477	-1406.86646	1365.17041	503.97818							-1497.18250	1361.93262	724.37836	-1566.04016	1408.26904	657.72797	-1385.80225	1379.96069	685.96478	
1170	4.871	-1456.12830	1456.06506	511.18988	-1463.04028	1453.98206	571.75830							-1465.97522	1446.05933	624.52789	-1483.04358	1449.78125	539.89764	-1510.08594	1436.57324	552.90875	-1507.89526	1413.16504	513.04974	-1514.53992	1390.67810	496.36331							-1436.19910	1438.74451	541.02856	-1419.27686	1423.60876	550.31958	-1428.55615	1400.73718	516.10944	-1425.78430	1367.36108	493.16977							-1493.00916	1363.69458	717.70032	-1563.32251	1407.17310	653.19110	-1384.83081	1381.83069	679.67889	
1171	4.875	-1455.55469	1454.59570	502.50806	-1461.51855	1454.29187	562.51001							-1464.77771	1446.05383	615.81500	-1482.12207	1449.63049	530.84412	-1507.99304	1434.83472	546.97296	-1501.27002	1418.23596	505.15802	-1498.61682	1395.40796	488.51715							-1435.17053	1438.66675	532.55322	-1419.18982	1422.80627	545.17816	-1430.22046	1407.79431	508.65625	-1436.51624	1376.49353	484.31073							-1488.82141	1365.66162	710.81091	-1560.78345	1405.62170	647.71594	-1384.22668	1382.24219	672.27789	
1172	4.879	-1454.89709	1452.68420	493.52280	-1460.35791	1454.37219	553.31091							-1463.50610	1445.64307	606.64795	-1480.87646	1449.13428	521.66406	-1506.34314	1435.15393	541.67688	-1499.39294	1426.81836	497.64957	-1490.88123	1406.41504	481.15723							-1434.20923	1438.58252	523.78027	-1416.83765	1424.72534	541.27863	-1426.95825	1414.87488	503.38150	-1437.53394	1386.69641	477.17581							-1485.47620	1368.14697	703.87268	-1558.47021	1403.93848	641.03241	-1383.79517	1381.15759	663.41113	
1173	4.883	-1454.16089	1450.56750	484.19345	-1458.97754	1453.84058	543.40668							-1462.32361	1445.10608	597.11426	-1479.53760	1448.30994	512.16467	-1506.41187	1439.29688	537.33453	-1501.78613	1434.85925	492.83224	-1492.28369	1417.13892	474.66577							-1433.31250	1437.62549	514.96558	-1413.88000	1428.59436	538.00323	-1420.07715	1421.63232	497.78043	-1430.93005	1392.68091	471.98358							-1482.59290	1369.21191	695.84723	-1556.33350	1401.51807	632.72028	-1383.23816	1379.04382	653.60748	
1174	4.887	-1453.33142	1448.63049	474.28964	-1457.48242	1452.82336	533.48816							-1461.28613	1444.47974	587.49237	-1478.03064	1446.79712	503.21613	-1505.98279	1444.70813	533.46021	-1504.52209	1443.86633	486.81326	-1498.06335	1425.85840	467.78983							-1431.71423	1436.31311	506.03787	-1411.75342	1433.22632	535.15729	-1411.42151	1427.94312	492.49524	-1420.14709	1396.61267	468.15158							-1480.38208	1368.78198	686.93994	-1554.66248	1399.17786	623.63635	-1382.51343	1377.04395	643.00000	
1175	4.892	-1452.19116	1446.10986	464.82898	-1455.85938	1450.99915	523.30255							-1460.23547	1443.42871	577.89984	-1476.25647	1445.40857	493.55826	-1501.51685	1450.26001	527.38824	-1507.34534	1452.80176	481.90625	-1507.76416	1432.70740	462.14630							-1429.86487	1435.03333	496.82654	-1411.73083	1439.72205	530.32227	-1402.34766	1435.08215	486.92978	-1406.72266	1398.40637	468.27151							-1478.90491	1366.90027	676.99805	-1553.64465	1397.26404	613.47754	-1380.90198	1375.24658	632.02161	
1176	4.896	-1451.05542	1444.11768	455.43002	-1454.20007	1448.69275	513.23920							-1459.23999	1442.28943	568.37823	-1474.92676	1442.86340	485.06894	-1495.00781	1455.30713	520.90100	-1508.35645	1462.96838	477.96375	-1518.52466	1440.96130	460.79700							-1428.79224	1434.39380	487.93118	-1414.35645	1446.71057	523.68378	-1394.66809	1442.52271	483.16714	-1392.00793	1402.20349	471.80322							-1477.95618	1364.13452	666.71674	-1553.17224	1396.24512	603.06476	-1378.67847	1374.37561	621.12164	
